# MagicaVoxel @ Ephtracy

# group
g Axe_V2

# material
mtllib Axe_V2.mtl
usemtl palette

# normals
vn -1 0 0
vn 1 0 0
vn 0 0 1
vn 0 0 -1
vn 0 -1 0
vn 0 1 0

# texcoords
vt 0.201172 0.5
vt 0.369141 0.5
vt 0.533203 0.5
vt 0.962891 0.5
vt 0.970703 0.5
vt 0.978516 0.5
vt 0.982422 0.5

# verts
v -5 9 0.5
v -5 9 -0.5
v -5 11 0.5
v -5 11 -0.5
v -5 13 0.5
v -5 13 -0.5
v -4 8 0.5
v -4 8 -0.5
v -4 9 0.5
v -4 9 -0.5
v -4 13 0.5
v -4 13 -0.5
v -4 14 0.5
v -4 14 -0.5
v 0 2 0.5
v 0 2 -0.5
v 0 5 0.5
v 0 5 -0.5
v 0 10 0.5
v 0 10 -0.5
v 0 12 0.5
v 0 12 -0.5
v 0 13 0.5
v 0 13 -0.5
v -1 8 0.5
v -1 8 -0.5
v -1 9 0.5
v -1 9 -0.5
v -1 10 0.5
v -1 10 -0.5
v -1 12 0.5
v -1 12 -0.5
v -1 13 0.5
v -1 13 -0.5
v -1 14 0.5
v -1 14 -0.5
v 1 2 0.5
v 1 2 -0.5
v 1 5 0.5
v 1 5 -0.5
v 1 10 0.5
v 1 10 -0.5
v 1 11 0.5
v 1 11 -0.5
v 1 12 0.5
v 1 12 -0.5
v 1 13 0.5
v 1 13 -0.5
v -5 9 0.5
v -5 11 0.5
v -5 13 0.5
v -4 8 0.5
v -4 9 0.5
v -4 11 0.5
v -4 13 0.5
v -4 14 0.5
v -3 9 0.5
v -3 11 0.5
v -3 13 0.5
v -1 8 0.5
v -1 9 0.5
v -1 10 0.5
v -1 11 0.5
v -1 12 0.5
v -1 13 0.5
v -1 14 0.5
v 0 2 0.5
v 0 5 0.5
v 0 10 0.5
v 0 11 0.5
v 0 12 0.5
v 0 13 0.5
v 1 2 0.5
v 1 5 0.5
v 1 10 0.5
v 1 11 0.5
v 1 12 0.5
v 1 13 0.5
v -5 9 -0.5
v -5 11 -0.5
v -5 13 -0.5
v -4 8 -0.5
v -4 9 -0.5
v -4 11 -0.5
v -4 13 -0.5
v -4 14 -0.5
v -3 9 -0.5
v -3 11 -0.5
v -3 13 -0.5
v -1 8 -0.5
v -1 9 -0.5
v -1 10 -0.5
v -1 11 -0.5
v -1 12 -0.5
v -1 13 -0.5
v -1 14 -0.5
v 0 2 -0.5
v 0 5 -0.5
v 0 10 -0.5
v 0 11 -0.5
v 0 12 -0.5
v 0 13 -0.5
v 1 2 -0.5
v 1 5 -0.5
v 1 10 -0.5
v 1 11 -0.5
v 1 12 -0.5
v 1 13 -0.5
v 0 2 0.5
v 1 2 0.5
v 0 2 -0.5
v 1 2 -0.5
v -4 8 0.5
v -1 8 0.5
v -4 8 -0.5
v -1 8 -0.5
v -5 9 0.5
v -4 9 0.5
v -5 9 -0.5
v -4 9 -0.5
v -1 10 0.5
v 0 10 0.5
v -1 10 -0.5
v 0 10 -0.5
v -1 12 0.5
v 0 12 0.5
v -1 12 -0.5
v 0 12 -0.5
v -5 13 0.5
v -4 13 0.5
v 0 13 0.5
v 1 13 0.5
v -5 13 -0.5
v -4 13 -0.5
v 0 13 -0.5
v 1 13 -0.5
v -4 14 0.5
v -1 14 0.5
v -4 14 -0.5
v -1 14 -0.5

# faces
f 3/5/1 2/5/1 1/5/1
f 4/5/1 2/5/1 3/5/1
f 5/4/1 4/4/1 3/4/1
f 6/4/1 4/4/1 5/4/1
f 9/5/1 8/5/1 7/5/1
f 10/5/1 8/5/1 9/5/1
f 13/4/1 12/4/1 11/4/1
f 14/4/1 12/4/1 13/4/1
f 17/3/1 16/3/1 15/3/1
f 18/3/1 16/3/1 17/3/1
f 19/2/1 18/2/1 17/2/1
f 20/2/1 18/2/1 19/2/1
f 23/1/1 22/1/1 21/1/1
f 24/1/1 22/1/1 23/1/1
f 25/5/2 26/5/2 27/5/2
f 27/5/2 26/5/2 28/5/2
f 27/6/2 28/6/2 29/6/2
f 29/6/2 28/6/2 30/6/2
f 31/5/2 32/5/2 33/5/2
f 33/5/2 32/5/2 34/5/2
f 33/4/2 34/4/2 35/4/2
f 35/4/2 34/4/2 36/4/2
f 37/3/2 38/3/2 39/3/2
f 39/3/2 38/3/2 40/3/2
f 39/2/2 40/2/2 41/2/2
f 41/2/2 40/2/2 42/2/2
f 41/1/2 42/1/2 43/1/2
f 43/1/2 42/1/2 44/1/2
f 43/7/2 44/7/2 45/7/2
f 45/7/2 44/7/2 46/7/2
f 45/1/2 46/1/2 47/1/2
f 47/1/2 46/1/2 48/1/2
f 53/5/3 50/5/3 49/5/3
f 54/4/3 51/4/3 50/4/3
f 54/5/3 50/5/3 53/5/3
f 55/4/3 51/4/3 54/4/3
f 57/5/3 53/5/3 52/5/3
f 57/7/3 54/7/3 53/7/3
f 57/7/3 55/7/3 54/7/3
f 58/7/3 55/7/3 57/7/3
f 59/4/3 56/4/3 55/4/3
f 59/7/3 55/7/3 58/7/3
f 60/5/3 57/5/3 52/5/3
f 61/6/3 58/6/3 57/6/3
f 61/5/3 57/5/3 60/5/3
f 62/6/3 58/6/3 61/6/3
f 63/5/3 59/5/3 58/5/3
f 63/6/3 58/6/3 62/6/3
f 64/5/3 59/5/3 63/5/3
f 65/4/3 56/4/3 59/4/3
f 65/5/3 59/5/3 64/5/3
f 66/4/3 56/4/3 65/4/3
f 69/7/3 64/7/3 63/7/3
f 69/7/3 63/7/3 62/7/3
f 70/7/3 64/7/3 69/7/3
f 71/7/3 64/7/3 70/7/3
f 73/3/3 68/3/3 67/3/3
f 74/2/3 69/2/3 68/2/3
f 74/3/3 68/3/3 73/3/3
f 75/1/3 70/1/3 69/1/3
f 75/2/3 69/2/3 74/2/3
f 76/7/3 71/7/3 70/7/3
f 76/1/3 70/1/3 75/1/3
f 77/1/3 72/1/3 71/1/3
f 77/7/3 71/7/3 76/7/3
f 78/1/3 72/1/3 77/1/3
f 79/5/4 80/5/4 83/5/4
f 80/4/4 81/4/4 84/4/4
f 83/5/4 80/5/4 84/5/4
f 84/4/4 81/4/4 85/4/4
f 82/5/4 83/5/4 87/5/4
f 83/7/4 84/7/4 87/7/4
f 84/7/4 85/7/4 87/7/4
f 87/7/4 85/7/4 88/7/4
f 85/4/4 86/4/4 89/4/4
f 88/7/4 85/7/4 89/7/4
f 82/5/4 87/5/4 90/5/4
f 87/6/4 88/6/4 91/6/4
f 90/5/4 87/5/4 91/5/4
f 91/6/4 88/6/4 92/6/4
f 88/5/4 89/5/4 93/5/4
f 92/6/4 88/6/4 93/6/4
f 93/5/4 89/5/4 94/5/4
f 89/4/4 86/4/4 95/4/4
f 94/5/4 89/5/4 95/5/4
f 95/4/4 86/4/4 96/4/4
f 93/7/4 94/7/4 99/7/4
f 92/7/4 93/7/4 99/7/4
f 99/7/4 94/7/4 100/7/4
f 100/7/4 94/7/4 101/7/4
f 97/3/4 98/3/4 103/3/4
f 98/2/4 99/2/4 104/2/4
f 103/3/4 98/3/4 104/3/4
f 99/1/4 100/1/4 105/1/4
f 104/2/4 99/2/4 105/2/4
f 100/7/4 101/7/4 106/7/4
f 105/1/4 100/1/4 106/1/4
f 101/1/4 102/1/4 107/1/4
f 106/7/4 101/7/4 107/7/4
f 107/1/4 102/1/4 108/1/4
f 111/3/5 110/3/5 109/3/5
f 112/3/5 110/3/5 111/3/5
f 115/5/5 114/5/5 113/5/5
f 116/5/5 114/5/5 115/5/5
f 119/5/5 118/5/5 117/5/5
f 120/5/5 118/5/5 119/5/5
f 123/7/5 122/7/5 121/7/5
f 124/7/5 122/7/5 123/7/5
f 125/7/6 126/7/6 127/7/6
f 127/7/6 126/7/6 128/7/6
f 129/4/6 130/4/6 133/4/6
f 133/4/6 130/4/6 134/4/6
f 131/1/6 132/1/6 135/1/6
f 135/1/6 132/1/6 136/1/6
f 137/4/6 138/4/6 139/4/6
f 139/4/6 138/4/6 140/4/6
