# MagicaVoxel @ Ephtracy

# group
g DOG_head

# material
mtllib DOG_head.mtl
usemtl palette

# normals
vn -1 0 0
vn 1 0 0
vn 0 0 1
vn 0 0 -1
vn 0 -1 0
vn 0 1 0

# texcoords
vt 0.0527344 0.5
vt 0.458984 0.5
vt 0.958984 0.5
vt 0.966797 0.5
vt 0.978516 0.5
vt 0.990234 0.5

# verts
v -11.5 2 5
v -11.5 2 -7
v -11.5 9 5
v -11.5 9 1
v -11.5 11 1
v -11.5 11 -7
v -9.5 2 7
v -9.5 2 5
v -9.5 2 -7
v -9.5 2 -9
v -9.5 9 5
v -9.5 9 1
v -9.5 11 7
v -9.5 11 3
v -9.5 11 1
v -9.5 11 -7
v -9.5 15 3
v -9.5 15 -0
v -9.5 21 -0
v -9.5 21 -9
v -8.5 21 -3
v -8.5 21 -9
v -8.5 23 -3
v -8.5 23 -9
v -7.5 0 9
v -7.5 0 -9
v -7.5 2 7
v -7.5 2 -9
v -7.5 2 -11
v -7.5 5 9
v -7.5 5 7
v -7.5 11 7
v -7.5 11 3
v -7.5 15 7
v -7.5 15 3
v -7.5 15 -0
v -7.5 17 3
v -7.5 17 -0
v -7.5 19 -9
v -7.5 19 -11
v -6.5 11 9
v -6.5 11 7
v -6.5 13 9
v -6.5 13 7
v -5.5 0 11
v -5.5 0 9
v -5.5 1 12
v -5.5 1 11
v -5.5 1 9
v -5.5 4 12
v -5.5 4 9
v -5.5 4 -11
v -5.5 4 -13
v -5.5 15 -11
v -5.5 15 -13
v -4.5 4 12
v -4.5 4 9
v -4.5 5 12
v -4.5 5 9
v -4.5 5 7
v -4.5 6 9
v -4.5 6 7
v -2.5 5 13
v -2.5 5 12
v -2.5 5 9
v -2.5 6 9
v -2.5 6 7
v -2.5 7 13
v -2.5 7 7
v -1.5 1 12
v -1.5 1 11
v -1.5 3 12
v -1.5 3 11
v -0.5 3 13
v -0.5 3 12
v -0.5 5 12
v -0.5 6 13
v -0.5 6 12
v 1.5 5 13
v 1.5 5 12
v 1.5 6 13
v 1.5 6 12
v 1.5 11 9
v 1.5 11 7
v 1.5 13 9
v 1.5 13 7
v 1.5 17 -3
v 1.5 17 -11
v 1.5 19 -3
v 1.5 19 -11
v 3.5 1 12
v 3.5 1 11
v 3.5 3 12
v 3.5 3 11
v 3.5 19 -3
v 3.5 19 -9
v 3.5 21 -3
v 3.5 21 -9
v 4.5 21 -3
v 4.5 21 -9
v 4.5 23 -3
v 4.5 23 -9
v 5.5 17 -0
v 5.5 17 -3
v 5.5 20 -0
v 5.5 20 -3
v 5.5 21 -0
v 5.5 21 -3
v -5.5 17 -0
v -5.5 17 -3
v -5.5 20 -0
v -5.5 20 -3
v -5.5 21 -0
v -5.5 21 -3
v -4.5 21 -3
v -4.5 21 -9
v -4.5 23 -3
v -4.5 23 -9
v -3.5 1 12
v -3.5 1 11
v -3.5 3 12
v -3.5 3 11
v -3.5 19 -3
v -3.5 19 -9
v -3.5 21 -3
v -3.5 21 -9
v -1.5 5 13
v -1.5 5 12
v -1.5 6 13
v -1.5 6 12
v -1.5 11 9
v -1.5 11 7
v -1.5 13 9
v -1.5 13 7
v -1.5 17 -3
v -1.5 17 -11
v -1.5 19 -3
v -1.5 19 -11
v 0.5 3 13
v 0.5 3 12
v 0.5 5 12
v 0.5 6 13
v 0.5 6 12
v 1.5 1 12
v 1.5 1 11
v 1.5 3 12
v 1.5 3 11
v 2.5 5 13
v 2.5 5 12
v 2.5 5 9
v 2.5 6 9
v 2.5 6 7
v 2.5 7 13
v 2.5 7 7
v 4.5 4 12
v 4.5 4 9
v 4.5 5 12
v 4.5 5 9
v 4.5 5 7
v 4.5 6 9
v 4.5 6 7
v 5.5 0 11
v 5.5 0 9
v 5.5 1 12
v 5.5 1 11
v 5.5 1 9
v 5.5 4 12
v 5.5 4 9
v 5.5 4 -11
v 5.5 4 -13
v 5.5 15 -11
v 5.5 15 -13
v 6.5 11 9
v 6.5 11 7
v 6.5 13 9
v 6.5 13 7
v 7.5 0 9
v 7.5 0 -9
v 7.5 2 7
v 7.5 2 -9
v 7.5 2 -11
v 7.5 5 9
v 7.5 5 7
v 7.5 11 7
v 7.5 11 3
v 7.5 15 7
v 7.5 15 3
v 7.5 15 -0
v 7.5 17 3
v 7.5 17 -0
v 7.5 19 -9
v 7.5 19 -11
v 8.5 21 -3
v 8.5 21 -9
v 8.5 23 -3
v 8.5 23 -9
v 9.5 2 7
v 9.5 2 5
v 9.5 2 -7
v 9.5 2 -9
v 9.5 9 5
v 9.5 9 1
v 9.5 11 7
v 9.5 11 3
v 9.5 11 1
v 9.5 11 -7
v 9.5 15 3
v 9.5 15 -0
v 9.5 21 -0
v 9.5 21 -9
v 11.5 2 5
v 11.5 2 -7
v 11.5 9 5
v 11.5 9 1
v 11.5 11 1
v 11.5 11 -7
v -2.5 5 13
v -2.5 7 13
v -1.5 5 13
v -1.5 6 13
v -0.5 3 13
v -0.5 6 13
v 0.5 3 13
v 0.5 6 13
v 1.5 5 13
v 1.5 6 13
v 2.5 5 13
v 2.5 7 13
v -5.5 1 12
v -5.5 4 12
v -4.5 4 12
v -4.5 5 12
v -3.5 1 12
v -3.5 3 12
v -2.5 5 12
v -1.5 1 12
v -1.5 3 12
v -1.5 5 12
v -1.5 6 12
v -0.5 3 12
v -0.5 5 12
v -0.5 6 12
v 0.5 3 12
v 0.5 5 12
v 0.5 6 12
v 1.5 1 12
v 1.5 3 12
v 1.5 5 12
v 1.5 6 12
v 2.5 5 12
v 3.5 1 12
v 3.5 3 12
v 4.5 4 12
v 4.5 5 12
v 5.5 1 12
v 5.5 4 12
v -5.5 0 11
v -5.5 1 11
v -3.5 1 11
v -3.5 3 11
v -1.5 1 11
v -1.5 3 11
v 1.5 1 11
v 1.5 3 11
v 3.5 1 11
v 3.5 3 11
v 5.5 0 11
v 5.5 1 11
v -7.5 0 9
v -7.5 5 9
v -6.5 11 9
v -6.5 13 9
v -5.5 0 9
v -5.5 1 9
v -5.5 4 9
v -4.5 4 9
v -4.5 5 9
v -4.5 6 9
v -2.5 5 9
v -2.5 6 9
v -1.5 11 9
v -1.5 13 9
v 1.5 11 9
v 1.5 13 9
v 2.5 5 9
v 2.5 6 9
v 4.5 4 9
v 4.5 5 9
v 4.5 6 9
v 5.5 0 9
v 5.5 1 9
v 5.5 4 9
v 6.5 11 9
v 6.5 13 9
v 7.5 0 9
v 7.5 5 9
v -9.5 2 7
v -9.5 11 7
v -7.5 2 7
v -7.5 5 7
v -7.5 11 7
v -7.5 15 7
v -6.5 7 7
v -6.5 10 7
v -6.5 11 7
v -6.5 13 7
v -5.5 6 7
v -5.5 7 7
v -5.5 10 7
v -5.5 11 7
v -4.5 5 7
v -4.5 6 7
v -2.5 6 7
v -2.5 7 7
v -2.5 10 7
v -2.5 11 7
v -1.5 7 7
v -1.5 10 7
v -1.5 11 7
v -1.5 13 7
v 1.5 11 7
v 1.5 13 7
v 2.5 6 7
v 2.5 7 7
v 2.5 10 7
v 4.5 5 7
v 4.5 6 7
v 5.5 7 7
v 5.5 10 7
v 6.5 11 7
v 6.5 13 7
v 7.5 2 7
v 7.5 5 7
v 7.5 11 7
v 7.5 15 7
v 9.5 2 7
v 9.5 11 7
v -11.5 2 5
v -11.5 9 5
v -9.5 2 5
v -9.5 9 5
v 9.5 2 5
v 9.5 9 5
v 11.5 2 5
v 11.5 9 5
v -9.5 11 3
v -9.5 15 3
v -7.5 11 3
v -7.5 15 3
v -7.5 17 3
v 7.5 11 3
v 7.5 15 3
v 7.5 17 3
v 9.5 11 3
v 9.5 15 3
v -11.5 9 1
v -11.5 11 1
v -9.5 9 1
v -9.5 11 1
v 9.5 9 1
v 9.5 11 1
v 11.5 9 1
v 11.5 11 1
v -9.5 15 -0
v -9.5 21 -0
v -8.5 15 -0
v -8.5 20 -0
v -7.5 15 -0
v -7.5 17 -0
v -5.5 17 -0
v -5.5 20 -0
v -5.5 21 -0
v 5.5 17 -0
v 5.5 20 -0
v 5.5 21 -0
v 7.5 15 -0
v 7.5 17 -0
v 8.5 15 -0
v 8.5 20 -0
v 9.5 15 -0
v 9.5 21 -0
v -8.5 21 -3
v -8.5 23 -3
v -5.5 17 -3
v -5.5 20 -3
v -5.5 21 -3
v -4.5 17 -3
v -4.5 20 -3
v -4.5 21 -3
v -4.5 23 -3
v -3.5 19 -3
v -3.5 21 -3
v -1.5 17 -3
v -1.5 19 -3
v 1.5 17 -3
v 1.5 19 -3
v 3.5 19 -3
v 3.5 21 -3
v 4.5 17 -3
v 4.5 20 -3
v 4.5 21 -3
v 4.5 23 -3
v 5.5 17 -3
v 5.5 20 -3
v 5.5 21 -3
v 8.5 21 -3
v 8.5 23 -3
v -11.5 2 -7
v -11.5 11 -7
v -9.5 2 -7
v -9.5 11 -7
v 9.5 2 -7
v 9.5 11 -7
v 11.5 2 -7
v 11.5 11 -7
v -9.5 2 -9
v -9.5 21 -9
v -8.5 21 -9
v -8.5 23 -9
v -7.5 0 -9
v -7.5 2 -9
v -7.5 19 -9
v -4.5 21 -9
v -4.5 23 -9
v -3.5 19 -9
v -3.5 21 -9
v 3.5 19 -9
v 3.5 21 -9
v 4.5 21 -9
v 4.5 23 -9
v 7.5 0 -9
v 7.5 2 -9
v 7.5 19 -9
v 8.5 21 -9
v 8.5 23 -9
v 9.5 2 -9
v 9.5 21 -9
v -7.5 2 -11
v -7.5 19 -11
v -5.5 4 -11
v -5.5 15 -11
v -1.5 17 -11
v -1.5 19 -11
v 1.5 17 -11
v 1.5 19 -11
v 5.5 4 -11
v 5.5 15 -11
v 7.5 2 -11
v 7.5 19 -11
v -5.5 4 -13
v -5.5 15 -13
v 5.5 4 -13
v 5.5 15 -13
v -5.5 0 11
v 5.5 0 11
v -7.5 0 9
v -5.5 0 9
v 5.5 0 9
v 7.5 0 9
v -7.5 0 -9
v 7.5 0 -9
v -5.5 1 12
v -3.5 1 12
v -1.5 1 12
v 1.5 1 12
v 3.5 1 12
v 5.5 1 12
v -5.5 1 11
v -3.5 1 11
v -1.5 1 11
v 1.5 1 11
v 3.5 1 11
v 5.5 1 11
v -9.5 2 7
v -7.5 2 7
v 7.5 2 7
v 9.5 2 7
v -11.5 2 5
v -9.5 2 5
v 9.5 2 5
v 11.5 2 5
v -11.5 2 -7
v -9.5 2 -7
v 9.5 2 -7
v 11.5 2 -7
v -9.5 2 -9
v -7.5 2 -9
v 7.5 2 -9
v 9.5 2 -9
v -7.5 2 -11
v 7.5 2 -11
v -0.5 3 13
v 0.5 3 13
v -3.5 3 12
v -1.5 3 12
v -0.5 3 12
v 0.5 3 12
v 1.5 3 12
v 3.5 3 12
v -3.5 3 11
v -1.5 3 11
v 1.5 3 11
v 3.5 3 11
v -5.5 4 -11
v 5.5 4 -11
v -5.5 4 -13
v 5.5 4 -13
v -2.5 5 13
v -1.5 5 13
v 1.5 5 13
v 2.5 5 13
v -2.5 5 12
v -1.5 5 12
v 1.5 5 12
v 2.5 5 12
v -1.5 6 13
v -0.5 6 13
v 0.5 6 13
v 1.5 6 13
v -1.5 6 12
v -0.5 6 12
v 0.5 6 12
v 1.5 6 12
v -6.5 11 9
v -1.5 11 9
v 1.5 11 9
v 6.5 11 9
v -6.5 11 7
v -5.5 11 7
v -2.5 11 7
v -1.5 11 7
v 1.5 11 7
v 6.5 11 7
v -5.5 4 12
v -4.5 4 12
v 4.5 4 12
v 5.5 4 12
v -5.5 4 9
v -4.5 4 9
v 4.5 4 9
v 5.5 4 9
v -4.5 5 12
v -2.5 5 12
v 2.5 5 12
v 4.5 5 12
v -7.5 5 9
v -4.5 5 9
v -2.5 5 9
v 2.5 5 9
v 4.5 5 9
v 7.5 5 9
v -7.5 5 7
v -4.5 5 7
v 4.5 5 7
v 7.5 5 7
v -4.5 6 9
v -2.5 6 9
v 2.5 6 9
v 4.5 6 9
v -4.5 6 7
v -2.5 6 7
v 2.5 6 7
v 4.5 6 7
v -2.5 7 13
v 2.5 7 13
v -2.5 7 7
v -1.5 7 7
v 2.5 7 7
v -11.5 9 5
v -9.5 9 5
v 9.5 9 5
v 11.5 9 5
v -11.5 9 1
v -9.5 9 1
v 9.5 9 1
v 11.5 9 1
v -9.5 11 7
v -7.5 11 7
v 7.5 11 7
v 9.5 11 7
v -9.5 11 3
v -7.5 11 3
v 7.5 11 3
v 9.5 11 3
v -11.5 11 1
v -9.5 11 1
v 9.5 11 1
v 11.5 11 1
v -11.5 11 -7
v -9.5 11 -7
v 9.5 11 -7
v 11.5 11 -7
v -6.5 13 9
v -1.5 13 9
v 1.5 13 9
v 6.5 13 9
v -6.5 13 7
v -1.5 13 7
v 1.5 13 7
v 6.5 13 7
v -7.5 15 7
v 7.5 15 7
v -9.5 15 3
v -7.5 15 3
v 7.5 15 3
v 9.5 15 3
v -9.5 15 -0
v -8.5 15 -0
v -7.5 15 -0
v 7.5 15 -0
v 8.5 15 -0
v 9.5 15 -0
v -5.5 15 -11
v 5.5 15 -11
v -5.5 15 -13
v 5.5 15 -13
v -7.5 17 3
v 7.5 17 3
v -7.5 17 -0
v -5.5 17 -0
v 5.5 17 -0
v 7.5 17 -0
v -5.5 17 -3
v -4.5 17 -3
v -1.5 17 -3
v 1.5 17 -3
v 4.5 17 -3
v 5.5 17 -3
v -1.5 17 -11
v 1.5 17 -11
v -3.5 19 -3
v -1.5 19 -3
v 1.5 19 -3
v 3.5 19 -3
v -7.5 19 -9
v -3.5 19 -9
v 3.5 19 -9
v 7.5 19 -9
v -7.5 19 -11
v -1.5 19 -11
v 1.5 19 -11
v 7.5 19 -11
v -9.5 21 -0
v -5.5 21 -0
v 5.5 21 -0
v 9.5 21 -0
v -8.5 21 -3
v -5.5 21 -3
v -4.5 21 -3
v -3.5 21 -3
v 3.5 21 -3
v 4.5 21 -3
v 5.5 21 -3
v 8.5 21 -3
v -9.5 21 -9
v -8.5 21 -9
v -4.5 21 -9
v -3.5 21 -9
v 3.5 21 -9
v 4.5 21 -9
v 8.5 21 -9
v 9.5 21 -9
v -8.5 23 -3
v -4.5 23 -3
v 4.5 23 -3
v 8.5 23 -3
v -8.5 23 -9
v -4.5 23 -9
v 4.5 23 -9
v 8.5 23 -9

# faces
f 3/3/1 2/3/1 1/3/1
f 4/3/1 2/3/1 3/3/1
f 5/3/1 2/3/1 4/3/1
f 6/3/1 2/3/1 5/3/1
f 11/3/1 8/3/1 7/3/1
f 13/3/1 11/3/1 7/3/1
f 13/3/1 12/3/1 11/3/1
f 14/3/1 12/3/1 13/3/1
f 15/3/1 12/3/1 14/3/1
f 16/3/1 10/3/1 9/3/1
f 17/3/1 15/3/1 14/3/1
f 17/3/1 16/3/1 15/3/1
f 18/3/1 16/3/1 17/3/1
f 19/3/1 16/3/1 18/3/1
f 20/3/1 10/3/1 16/3/1
f 20/3/1 16/3/1 19/3/1
f 23/3/1 22/3/1 21/3/1
f 24/3/1 22/3/1 23/3/1
f 27/3/1 26/3/1 25/3/1
f 28/3/1 26/3/1 27/3/1
f 30/3/1 27/3/1 25/3/1
f 31/3/1 27/3/1 30/3/1
f 34/3/1 33/3/1 32/3/1
f 35/3/1 33/3/1 34/3/1
f 37/3/1 36/3/1 35/3/1
f 38/3/1 36/3/1 37/3/1
f 39/3/1 29/3/1 28/3/1
f 40/3/1 29/3/1 39/3/1
f 43/5/1 42/5/1 41/5/1
f 44/5/1 42/5/1 43/5/1
f 48/3/1 46/3/1 45/3/1
f 49/3/1 46/3/1 48/3/1
f 50/5/1 48/5/1 47/5/1
f 50/5/1 49/5/1 48/5/1
f 51/5/1 49/5/1 50/5/1
f 54/3/1 53/3/1 52/3/1
f 55/3/1 53/3/1 54/3/1
f 58/5/1 57/5/1 56/5/1
f 59/5/1 57/5/1 58/5/1
f 61/3/1 60/3/1 59/3/1
f 62/3/1 60/3/1 61/3/1
f 66/6/1 64/6/1 63/6/1
f 66/6/1 65/6/1 64/6/1
f 68/6/1 66/6/1 63/6/1
f 68/6/1 67/6/1 66/6/1
f 69/6/1 67/6/1 68/6/1
f 72/1/1 71/1/1 70/1/1
f 73/1/1 71/1/1 72/1/1
f 76/6/1 75/6/1 74/6/1
f 77/6/1 76/6/1 74/6/1
f 78/6/1 76/6/1 77/6/1
f 81/6/1 80/6/1 79/6/1
f 82/6/1 80/6/1 81/6/1
f 85/5/1 84/5/1 83/5/1
f 86/5/1 84/5/1 85/5/1
f 89/3/1 88/3/1 87/3/1
f 90/3/1 88/3/1 89/3/1
f 93/5/1 92/5/1 91/5/1
f 94/5/1 92/5/1 93/5/1
f 97/3/1 96/3/1 95/3/1
f 98/3/1 96/3/1 97/3/1
f 101/3/1 100/3/1 99/3/1
f 102/3/1 100/3/1 101/3/1
f 105/6/1 104/6/1 103/6/1
f 106/6/1 104/6/1 105/6/1
f 107/3/1 106/3/1 105/3/1
f 108/3/1 106/3/1 107/3/1
f 109/6/2 110/6/2 111/6/2
f 111/6/2 110/6/2 112/6/2
f 111/3/2 112/3/2 113/3/2
f 113/3/2 112/3/2 114/3/2
f 115/3/2 116/3/2 117/3/2
f 117/3/2 116/3/2 118/3/2
f 119/5/2 120/5/2 121/5/2
f 121/5/2 120/5/2 122/5/2
f 123/3/2 124/3/2 125/3/2
f 125/3/2 124/3/2 126/3/2
f 127/6/2 128/6/2 129/6/2
f 129/6/2 128/6/2 130/6/2
f 131/5/2 132/5/2 133/5/2
f 133/5/2 132/5/2 134/5/2
f 135/3/2 136/3/2 137/3/2
f 137/3/2 136/3/2 138/3/2
f 139/6/2 140/6/2 141/6/2
f 139/6/2 141/6/2 142/6/2
f 142/6/2 141/6/2 143/6/2
f 144/1/2 145/1/2 146/1/2
f 146/1/2 145/1/2 147/1/2
f 148/6/2 149/6/2 151/6/2
f 149/6/2 150/6/2 151/6/2
f 148/6/2 151/6/2 153/6/2
f 151/6/2 152/6/2 153/6/2
f 153/6/2 152/6/2 154/6/2
f 155/5/2 156/5/2 157/5/2
f 157/5/2 156/5/2 158/5/2
f 158/3/2 159/3/2 160/3/2
f 160/3/2 159/3/2 161/3/2
f 162/3/2 163/3/2 165/3/2
f 165/3/2 163/3/2 166/3/2
f 164/5/2 165/5/2 167/5/2
f 165/5/2 166/5/2 167/5/2
f 167/5/2 166/5/2 168/5/2
f 169/3/2 170/3/2 171/3/2
f 171/3/2 170/3/2 172/3/2
f 173/5/2 174/5/2 175/5/2
f 175/5/2 174/5/2 176/5/2
f 177/3/2 178/3/2 179/3/2
f 179/3/2 178/3/2 180/3/2
f 177/3/2 179/3/2 182/3/2
f 182/3/2 179/3/2 183/3/2
f 184/3/2 185/3/2 186/3/2
f 186/3/2 185/3/2 187/3/2
f 187/3/2 188/3/2 189/3/2
f 189/3/2 188/3/2 190/3/2
f 180/3/2 181/3/2 191/3/2
f 191/3/2 181/3/2 192/3/2
f 193/3/2 194/3/2 195/3/2
f 195/3/2 194/3/2 196/3/2
f 197/3/2 198/3/2 201/3/2
f 197/3/2 201/3/2 203/3/2
f 201/3/2 202/3/2 203/3/2
f 203/3/2 202/3/2 204/3/2
f 204/3/2 202/3/2 205/3/2
f 199/3/2 200/3/2 206/3/2
f 204/3/2 205/3/2 207/3/2
f 205/3/2 206/3/2 207/3/2
f 207/3/2 206/3/2 208/3/2
f 208/3/2 206/3/2 209/3/2
f 206/3/2 200/3/2 210/3/2
f 209/3/2 206/3/2 210/3/2
f 211/3/2 212/3/2 213/3/2
f 213/3/2 212/3/2 214/3/2
f 214/3/2 212/3/2 215/3/2
f 215/3/2 212/3/2 216/3/2
f 219/6/3 218/6/3 217/6/3
f 220/6/3 218/6/3 219/6/3
f 222/6/3 218/6/3 220/6/3
f 223/6/3 222/6/3 221/6/3
f 224/6/3 218/6/3 222/6/3
f 224/6/3 222/6/3 223/6/3
f 226/6/3 218/6/3 224/6/3
f 227/6/3 226/6/3 225/6/3
f 228/6/3 218/6/3 226/6/3
f 228/6/3 226/6/3 227/6/3
f 231/5/3 230/5/3 229/5/3
f 233/5/3 231/5/3 229/5/3
f 233/5/3 232/5/3 231/5/3
f 234/5/3 232/5/3 233/5/3
f 235/5/3 232/5/3 234/5/3
f 237/5/3 235/5/3 234/5/3
f 238/5/3 235/5/3 237/5/3
f 240/5/3 238/5/3 237/5/3
f 240/1/3 237/1/3 236/1/3
f 241/6/3 239/6/3 238/6/3
f 241/5/3 238/5/3 240/5/3
f 242/6/3 239/6/3 241/6/3
f 243/1/3 240/1/3 236/1/3
f 246/1/3 243/1/3 236/1/3
f 247/5/3 244/5/3 243/5/3
f 247/1/3 243/1/3 246/1/3
f 248/6/3 245/6/3 244/6/3
f 248/5/3 244/5/3 247/5/3
f 249/6/3 245/6/3 248/6/3
f 250/5/3 248/5/3 247/5/3
f 252/5/3 250/5/3 247/5/3
f 253/5/3 250/5/3 252/5/3
f 253/5/3 252/5/3 251/5/3
f 254/5/3 250/5/3 253/5/3
f 255/5/3 253/5/3 251/5/3
f 256/5/3 253/5/3 255/5/3
f 259/3/3 258/3/3 257/3/3
f 261/3/3 259/3/3 257/3/3
f 261/3/3 260/3/3 259/3/3
f 262/3/3 260/3/3 261/3/3
f 263/3/3 261/3/3 257/3/3
f 265/3/3 263/3/3 257/3/3
f 265/3/3 264/3/3 263/3/3
f 266/3/3 264/3/3 265/3/3
f 267/3/3 265/3/3 257/3/3
f 268/3/3 265/3/3 267/3/3
f 273/3/3 270/3/3 269/3/3
f 274/3/3 270/3/3 273/3/3
f 275/3/3 270/3/3 274/3/3
f 276/3/3 270/3/3 275/3/3
f 277/3/3 270/3/3 276/3/3
f 279/3/3 278/3/3 277/3/3
f 280/3/3 278/3/3 279/3/3
f 281/5/3 272/5/3 271/5/3
f 282/5/3 272/5/3 281/5/3
f 288/3/3 286/3/3 285/3/3
f 289/3/3 286/3/3 288/3/3
f 292/3/3 288/3/3 287/3/3
f 293/5/3 284/5/3 283/5/3
f 294/5/3 284/5/3 293/5/3
f 295/3/3 292/3/3 291/3/3
f 295/3/3 291/3/3 290/3/3
f 296/3/3 288/3/3 292/3/3
f 296/3/3 292/3/3 295/3/3
f 299/3/3 298/3/3 297/3/3
f 300/3/3 298/3/3 299/3/3
f 301/3/3 298/3/3 300/3/3
f 303/3/3 302/3/3 301/3/3
f 303/3/3 301/3/3 300/3/3
f 304/3/3 302/3/3 303/3/3
f 305/3/3 302/3/3 304/3/3
f 306/3/3 302/3/3 305/3/3
f 307/3/3 303/3/3 300/3/3
f 308/4/3 304/4/3 303/4/3
f 308/3/3 303/3/3 307/3/3
f 309/3/3 305/3/3 304/3/3
f 309/4/3 304/4/3 308/4/3
f 310/3/3 305/3/3 309/3/3
f 311/3/3 307/3/3 300/3/3
f 312/4/3 308/4/3 307/4/3
f 312/3/3 307/3/3 311/3/3
f 313/4/3 308/4/3 312/4/3
f 314/2/3 309/2/3 308/2/3
f 314/4/3 308/4/3 313/4/3
f 315/4/3 310/4/3 309/4/3
f 315/2/3 309/2/3 314/2/3
f 316/4/3 310/4/3 315/4/3
f 317/4/3 315/4/3 314/4/3
f 318/3/3 316/3/3 315/3/3
f 318/4/3 315/4/3 317/4/3
f 319/3/3 316/3/3 318/3/3
f 320/3/3 302/3/3 306/3/3
f 321/3/3 319/3/3 318/3/3
f 321/3/3 320/3/3 319/3/3
f 321/3/3 318/3/3 317/3/3
f 322/3/3 302/3/3 320/3/3
f 322/3/3 320/3/3 321/3/3
f 324/3/3 321/3/3 317/3/3
f 325/3/3 321/3/3 324/3/3
f 327/3/3 324/3/3 323/3/3
f 328/2/3 325/2/3 324/2/3
f 328/3/3 327/3/3 326/3/3
f 328/3/3 324/3/3 327/3/3
f 329/3/3 321/3/3 325/3/3
f 329/2/3 325/2/3 328/2/3
f 330/3/3 329/3/3 328/3/3
f 330/3/3 321/3/3 329/3/3
f 331/3/3 302/3/3 322/3/3
f 333/3/3 330/3/3 328/3/3
f 333/3/3 331/3/3 330/3/3
f 333/3/3 328/3/3 326/3/3
f 334/3/3 331/3/3 333/3/3
f 335/3/3 302/3/3 331/3/3
f 335/3/3 331/3/3 334/3/3
f 336/3/3 334/3/3 333/3/3
f 336/3/3 333/3/3 332/3/3
f 337/3/3 334/3/3 336/3/3
f 340/3/3 339/3/3 338/3/3
f 341/3/3 339/3/3 340/3/3
f 344/3/3 343/3/3 342/3/3
f 345/3/3 343/3/3 344/3/3
f 348/3/3 347/3/3 346/3/3
f 349/3/3 347/3/3 348/3/3
f 352/3/3 350/3/3 349/3/3
f 353/3/3 350/3/3 352/3/3
f 354/3/3 352/3/3 351/3/3
f 355/3/3 352/3/3 354/3/3
f 358/3/3 357/3/3 356/3/3
f 359/3/3 357/3/3 358/3/3
f 362/3/3 361/3/3 360/3/3
f 363/3/3 361/3/3 362/3/3
f 366/3/3 365/3/3 364/3/3
f 367/3/3 365/3/3 366/3/3
f 368/6/3 367/6/3 366/6/3
f 369/6/3 367/6/3 368/6/3
f 370/6/3 367/6/3 369/6/3
f 371/3/3 365/3/3 367/3/3
f 371/6/3 367/6/3 370/6/3
f 372/3/3 365/3/3 371/3/3
f 377/6/3 374/6/3 373/6/3
f 378/6/3 377/6/3 376/6/3
f 379/3/3 375/3/3 374/3/3
f 379/6/3 377/6/3 378/6/3
f 379/6/3 374/6/3 377/6/3
f 380/3/3 379/3/3 378/3/3
f 381/3/3 375/3/3 379/3/3
f 381/3/3 379/3/3 380/3/3
f 386/3/3 383/3/3 382/3/3
f 387/6/3 385/6/3 384/6/3
f 388/3/3 386/3/3 385/3/3
f 388/6/3 385/6/3 387/6/3
f 389/3/3 383/3/3 386/3/3
f 389/3/3 386/3/3 388/3/3
f 390/3/3 383/3/3 389/3/3
f 391/3/3 388/3/3 387/3/3
f 391/3/3 389/3/3 388/3/3
f 392/3/3 389/3/3 391/3/3
f 393/3/3 391/3/3 387/3/3
f 394/3/3 391/3/3 393/3/3
f 397/3/3 396/3/3 395/3/3
f 399/3/3 397/3/3 395/3/3
f 399/3/3 398/3/3 397/3/3
f 400/3/3 398/3/3 399/3/3
f 401/3/3 398/3/3 400/3/3
f 403/6/3 400/6/3 399/6/3
f 404/3/3 401/3/3 400/3/3
f 404/6/3 400/6/3 403/6/3
f 404/3/3 402/3/3 401/3/3
f 405/3/3 402/3/3 404/3/3
f 406/3/3 402/3/3 405/3/3
f 407/3/3 402/3/3 406/3/3
f 408/3/4 409/3/4 410/3/4
f 410/3/4 409/3/4 411/3/4
f 412/3/4 413/3/4 414/3/4
f 414/3/4 413/3/4 415/3/4
f 416/3/4 417/3/4 418/3/4
f 416/3/4 418/3/4 421/3/4
f 418/3/4 419/3/4 421/3/4
f 421/3/4 419/3/4 422/3/4
f 422/3/4 419/3/4 423/3/4
f 423/3/4 419/3/4 424/3/4
f 422/3/4 423/3/4 425/3/4
f 425/3/4 423/3/4 426/3/4
f 427/3/4 428/3/4 429/3/4
f 420/3/4 421/3/4 431/3/4
f 431/3/4 421/3/4 432/3/4
f 429/3/4 430/3/4 433/3/4
f 427/3/4 429/3/4 433/3/4
f 432/3/4 433/3/4 434/3/4
f 433/3/4 430/3/4 434/3/4
f 434/3/4 430/3/4 435/3/4
f 432/3/4 434/3/4 436/3/4
f 436/3/4 434/3/4 437/3/4
f 438/3/4 439/3/4 440/3/4
f 440/3/4 439/3/4 441/3/4
f 441/3/4 439/3/4 442/3/4
f 442/3/4 439/3/4 443/3/4
f 441/3/4 442/3/4 444/3/4
f 438/3/4 440/3/4 446/3/4
f 444/3/4 445/3/4 447/3/4
f 441/3/4 444/3/4 447/3/4
f 438/3/4 446/3/4 448/3/4
f 446/3/4 447/3/4 448/3/4
f 447/3/4 445/3/4 449/3/4
f 448/3/4 447/3/4 449/3/4
f 450/3/4 451/3/4 452/3/4
f 452/3/4 451/3/4 453/3/4
f 457/3/5 455/3/5 454/3/5
f 458/3/5 455/3/5 457/3/5
f 460/3/5 457/3/5 456/3/5
f 460/3/5 459/3/5 458/3/5
f 460/3/5 458/3/5 457/3/5
f 461/3/5 459/3/5 460/3/5
f 468/5/5 463/5/5 462/5/5
f 469/5/5 463/5/5 468/5/5
f 470/1/5 465/1/5 464/1/5
f 471/1/5 465/1/5 470/1/5
f 472/5/5 467/5/5 466/5/5
f 473/5/5 467/5/5 472/5/5
f 479/3/5 475/3/5 474/3/5
f 480/3/5 477/3/5 476/3/5
f 482/3/5 479/3/5 478/3/5
f 483/3/5 475/3/5 479/3/5
f 483/3/5 479/3/5 482/3/5
f 484/3/5 481/3/5 480/3/5
f 484/3/5 480/3/5 476/3/5
f 485/3/5 481/3/5 484/3/5
f 486/3/5 475/3/5 483/3/5
f 487/3/5 475/3/5 486/3/5
f 488/3/5 484/3/5 476/3/5
f 489/3/5 484/3/5 488/3/5
f 490/3/5 488/3/5 487/3/5
f 491/3/5 488/3/5 490/3/5
f 496/6/5 493/6/5 492/6/5
f 497/6/5 493/6/5 496/6/5
f 500/5/5 495/5/5 494/5/5
f 501/5/5 495/5/5 500/5/5
f 502/5/5 499/5/5 498/5/5
f 503/5/5 499/5/5 502/5/5
f 506/3/5 505/3/5 504/3/5
f 507/3/5 505/3/5 506/3/5
f 512/6/5 509/6/5 508/6/5
f 513/6/5 509/6/5 512/6/5
f 514/6/5 511/6/5 510/6/5
f 515/6/5 511/6/5 514/6/5
f 520/6/5 517/6/5 516/6/5
f 521/6/5 517/6/5 520/6/5
f 522/6/5 519/6/5 518/6/5
f 523/6/5 519/6/5 522/6/5
f 528/5/5 525/5/5 524/5/5
f 529/5/5 525/5/5 528/5/5
f 530/5/5 525/5/5 529/5/5
f 531/5/5 525/5/5 530/5/5
f 532/5/5 527/5/5 526/5/5
f 533/5/5 527/5/5 532/5/5
f 534/5/6 535/5/6 538/5/6
f 538/5/6 535/5/6 539/5/6
f 536/5/6 537/5/6 540/5/6
f 540/5/6 537/5/6 541/5/6
f 542/5/6 543/5/6 547/5/6
f 547/5/6 543/5/6 548/5/6
f 544/5/6 545/5/6 549/5/6
f 549/5/6 545/5/6 550/5/6
f 546/3/6 547/3/6 552/3/6
f 552/3/6 547/3/6 553/3/6
f 550/3/6 551/3/6 554/3/6
f 554/3/6 551/3/6 555/3/6
f 556/3/6 557/3/6 560/3/6
f 560/3/6 557/3/6 561/3/6
f 558/3/6 559/3/6 562/3/6
f 562/3/6 559/3/6 563/3/6
f 564/6/6 565/6/6 566/6/6
f 566/6/6 565/6/6 567/6/6
f 567/6/6 565/6/6 568/6/6
f 569/3/6 570/3/6 573/3/6
f 573/3/6 570/3/6 574/3/6
f 571/3/6 572/3/6 575/3/6
f 575/3/6 572/3/6 576/3/6
f 577/3/6 578/3/6 581/3/6
f 581/3/6 578/3/6 582/3/6
f 579/3/6 580/3/6 583/3/6
f 583/3/6 580/3/6 584/3/6
f 585/3/6 586/3/6 589/3/6
f 589/3/6 586/3/6 590/3/6
f 587/3/6 588/3/6 591/3/6
f 591/3/6 588/3/6 592/3/6
f 593/5/6 594/5/6 597/5/6
f 597/5/6 594/5/6 598/5/6
f 595/5/6 596/5/6 599/5/6
f 599/5/6 596/5/6 600/5/6
f 601/3/6 602/3/6 604/3/6
f 604/3/6 602/3/6 605/3/6
f 603/3/6 604/3/6 607/3/6
f 607/3/6 604/3/6 608/3/6
f 608/3/6 604/3/6 609/3/6
f 605/3/6 606/3/6 610/3/6
f 610/3/6 606/3/6 611/3/6
f 611/3/6 606/3/6 612/3/6
f 613/3/6 614/3/6 615/3/6
f 615/3/6 614/3/6 616/3/6
f 617/3/6 618/3/6 619/3/6
f 619/3/6 618/3/6 620/3/6
f 620/3/6 618/3/6 621/3/6
f 621/3/6 618/3/6 622/3/6
f 620/3/6 621/3/6 623/3/6
f 623/3/6 621/3/6 624/3/6
f 624/3/6 621/3/6 625/3/6
f 625/3/6 621/3/6 626/3/6
f 626/3/6 621/3/6 627/3/6
f 627/3/6 621/3/6 628/3/6
f 625/3/6 626/3/6 629/3/6
f 629/3/6 626/3/6 630/3/6
f 631/3/6 632/3/6 636/3/6
f 633/3/6 634/3/6 637/3/6
f 635/3/6 636/3/6 639/3/6
f 636/3/6 632/3/6 640/3/6
f 639/3/6 636/3/6 640/3/6
f 637/3/6 638/3/6 641/3/6
f 633/3/6 637/3/6 641/3/6
f 641/3/6 638/3/6 642/3/6
f 643/3/6 644/3/6 647/3/6
f 647/3/6 644/3/6 648/3/6
f 645/3/6 646/3/6 653/3/6
f 653/3/6 646/3/6 654/3/6
f 643/3/6 647/3/6 655/3/6
f 655/3/6 647/3/6 656/3/6
f 649/3/6 650/3/6 657/3/6
f 657/3/6 650/3/6 658/3/6
f 651/3/6 652/3/6 659/3/6
f 659/3/6 652/3/6 660/3/6
f 654/3/6 646/3/6 661/3/6
f 661/3/6 646/3/6 662/3/6
f 663/3/6 664/3/6 667/3/6
f 667/3/6 664/3/6 668/3/6
f 665/3/6 666/3/6 669/3/6
f 669/3/6 666/3/6 670/3/6
