# MagicaVoxel @ Ephtracy

# group
g tileC

# material
mtllib tileC.mtl
usemtl palette

# normals
vn -1 0 0
vn 1 0 0
vn 0 0 1
vn 0 0 -1
vn 0 -1 0
vn 0 1 0

# texcoords
vt 0.978516 0.5
vt 0.982422 0.5

# verts
v 21 3 -16
v 21 3 -20
v 21 7 -16
v 21 7 -20
v 21 11 -16
v 21 11 -20
v 21 19 -16
v 21 19 -20
v 21 23 -16
v 21 23 -20
v 21 27 -16
v 21 27 -20
v 21 35 -16
v 21 35 -20
v 53 3 -16
v 53 3 -20
v 53 15 -16
v 53 15 -20
v 53 19 -16
v 53 19 -20
v 53 23 -16
v 53 23 -20
v 53 35 -16
v 53 35 -20
v 21 3 -16
v 21 7 -16
v 21 11 -16
v 21 19 -16
v 21 23 -16
v 21 27 -16
v 21 35 -16
v 25 7 -16
v 25 11 -16
v 25 15 -16
v 25 19 -16
v 25 23 -16
v 25 27 -16
v 29 7 -16
v 29 11 -16
v 29 15 -16
v 29 19 -16
v 29 23 -16
v 29 27 -16
v 33 7 -16
v 33 11 -16
v 33 15 -16
v 33 19 -16
v 33 23 -16
v 33 27 -16
v 37 7 -16
v 37 11 -16
v 37 15 -16
v 37 19 -16
v 37 23 -16
v 37 27 -16
v 41 7 -16
v 41 11 -16
v 41 15 -16
v 41 19 -16
v 41 23 -16
v 41 27 -16
v 45 7 -16
v 45 11 -16
v 45 15 -16
v 45 19 -16
v 45 23 -16
v 45 27 -16
v 49 7 -16
v 49 11 -16
v 49 15 -16
v 49 19 -16
v 49 23 -16
v 49 27 -16
v 53 3 -16
v 53 15 -16
v 53 19 -16
v 53 23 -16
v 53 35 -16
v 21 3 -20
v 21 7 -20
v 21 11 -20
v 21 19 -20
v 21 23 -20
v 21 27 -20
v 21 35 -20
v 25 7 -20
v 25 11 -20
v 25 15 -20
v 25 19 -20
v 25 23 -20
v 25 27 -20
v 29 7 -20
v 29 11 -20
v 29 15 -20
v 29 19 -20
v 29 23 -20
v 29 27 -20
v 33 7 -20
v 33 11 -20
v 33 15 -20
v 33 19 -20
v 33 23 -20
v 33 27 -20
v 37 7 -20
v 37 11 -20
v 37 15 -20
v 37 19 -20
v 37 23 -20
v 37 27 -20
v 41 7 -20
v 41 11 -20
v 41 15 -20
v 41 19 -20
v 41 23 -20
v 41 27 -20
v 45 7 -20
v 45 11 -20
v 45 15 -20
v 45 19 -20
v 45 23 -20
v 45 27 -20
v 49 7 -20
v 49 11 -20
v 49 15 -20
v 49 19 -20
v 49 23 -20
v 49 27 -20
v 53 3 -20
v 53 15 -20
v 53 19 -20
v 53 23 -20
v 53 35 -20
v 21 3 -16
v 53 3 -16
v 21 3 -20
v 53 3 -20
v 21 35 -16
v 53 35 -16
v 21 35 -20
v 53 35 -20

# faces
f 3/1/1 2/1/1 1/1/1
f 4/1/1 2/1/1 3/1/1
f 5/2/1 4/2/1 3/2/1
f 6/2/1 4/2/1 5/2/1
f 7/1/1 6/1/1 5/1/1
f 8/1/1 6/1/1 7/1/1
f 9/2/1 8/2/1 7/2/1
f 10/2/1 8/2/1 9/2/1
f 11/1/1 10/1/1 9/1/1
f 12/1/1 10/1/1 11/1/1
f 13/2/1 12/2/1 11/2/1
f 14/2/1 12/2/1 13/2/1
f 15/1/2 16/1/2 17/1/2
f 17/1/2 16/1/2 18/1/2
f 17/2/2 18/2/2 19/2/2
f 19/2/2 18/2/2 20/2/2
f 19/1/2 20/1/2 21/1/2
f 21/1/2 20/1/2 22/1/2
f 21/2/2 22/2/2 23/2/2
f 23/2/2 22/2/2 24/2/2
f 32/1/3 26/1/3 25/1/3
f 32/2/3 27/2/3 26/2/3
f 33/1/3 28/1/3 27/1/3
f 33/2/3 27/2/3 32/2/3
f 34/1/3 28/1/3 33/1/3
f 35/2/3 29/2/3 28/2/3
f 35/1/3 28/1/3 34/1/3
f 36/1/3 30/1/3 29/1/3
f 36/2/3 29/2/3 35/2/3
f 37/2/3 31/2/3 30/2/3
f 37/1/3 30/1/3 36/1/3
f 38/1/3 32/1/3 25/1/3
f 38/1/3 34/1/3 33/1/3
f 38/1/3 33/1/3 32/1/3
f 39/1/3 34/1/3 38/1/3
f 40/2/3 35/2/3 34/2/3
f 40/1/3 34/1/3 39/1/3
f 41/1/3 36/1/3 35/1/3
f 41/2/3 35/2/3 40/2/3
f 42/2/3 37/2/3 36/2/3
f 42/1/3 36/1/3 41/1/3
f 43/2/3 31/2/3 37/2/3
f 43/2/3 37/2/3 42/2/3
f 44/2/3 39/2/3 38/2/3
f 44/1/3 38/1/3 25/1/3
f 45/1/3 40/1/3 39/1/3
f 45/2/3 39/2/3 44/2/3
f 45/1/3 41/1/3 40/1/3
f 46/1/3 41/1/3 45/1/3
f 47/2/3 42/2/3 41/2/3
f 47/1/3 41/1/3 46/1/3
f 48/1/3 43/1/3 42/1/3
f 48/2/3 42/2/3 47/2/3
f 49/2/3 31/2/3 43/2/3
f 49/1/3 43/1/3 48/1/3
f 50/1/3 44/1/3 25/1/3
f 50/1/3 46/1/3 45/1/3
f 50/1/3 45/1/3 44/1/3
f 51/1/3 46/1/3 50/1/3
f 52/2/3 47/2/3 46/2/3
f 52/1/3 46/1/3 51/1/3
f 53/1/3 48/1/3 47/1/3
f 53/2/3 47/2/3 52/2/3
f 54/2/3 49/2/3 48/2/3
f 54/1/3 48/1/3 53/1/3
f 55/2/3 31/2/3 49/2/3
f 55/2/3 49/2/3 54/2/3
f 56/2/3 51/2/3 50/2/3
f 56/1/3 50/1/3 25/1/3
f 57/1/3 52/1/3 51/1/3
f 57/2/3 51/2/3 56/2/3
f 57/1/3 53/1/3 52/1/3
f 58/1/3 53/1/3 57/1/3
f 59/2/3 54/2/3 53/2/3
f 59/1/3 53/1/3 58/1/3
f 60/1/3 55/1/3 54/1/3
f 60/2/3 54/2/3 59/2/3
f 61/2/3 31/2/3 55/2/3
f 61/1/3 55/1/3 60/1/3
f 62/1/3 58/1/3 57/1/3
f 62/1/3 56/1/3 25/1/3
f 62/1/3 57/1/3 56/1/3
f 63/1/3 58/1/3 62/1/3
f 64/2/3 59/2/3 58/2/3
f 64/1/3 58/1/3 63/1/3
f 65/1/3 60/1/3 59/1/3
f 65/2/3 59/2/3 64/2/3
f 66/2/3 61/2/3 60/2/3
f 66/1/3 60/1/3 65/1/3
f 67/2/3 31/2/3 61/2/3
f 67/2/3 61/2/3 66/2/3
f 68/2/3 63/2/3 62/2/3
f 68/1/3 62/1/3 25/1/3
f 69/1/3 65/1/3 64/1/3
f 69/2/3 63/2/3 68/2/3
f 69/1/3 64/1/3 63/1/3
f 70/1/3 65/1/3 69/1/3
f 71/2/3 66/2/3 65/2/3
f 71/1/3 65/1/3 70/1/3
f 72/1/3 67/1/3 66/1/3
f 72/2/3 66/2/3 71/2/3
f 73/2/3 31/2/3 67/2/3
f 73/1/3 67/1/3 72/1/3
f 74/1/3 70/1/3 69/1/3
f 74/1/3 68/1/3 25/1/3
f 74/1/3 69/1/3 68/1/3
f 75/2/3 71/2/3 70/2/3
f 75/1/3 70/1/3 74/1/3
f 76/1/3 72/1/3 71/1/3
f 76/2/3 71/2/3 75/2/3
f 77/2/3 73/2/3 72/2/3
f 77/1/3 72/1/3 76/1/3
f 78/2/3 31/2/3 73/2/3
f 78/2/3 73/2/3 77/2/3
f 79/1/4 80/1/4 86/1/4
f 80/2/4 81/2/4 86/2/4
f 81/1/4 82/1/4 87/1/4
f 86/2/4 81/2/4 87/2/4
f 87/1/4 82/1/4 88/1/4
f 82/2/4 83/2/4 89/2/4
f 88/1/4 82/1/4 89/1/4
f 83/1/4 84/1/4 90/1/4
f 89/2/4 83/2/4 90/2/4
f 84/2/4 85/2/4 91/2/4
f 90/1/4 84/1/4 91/1/4
f 79/1/4 86/1/4 92/1/4
f 87/1/4 88/1/4 92/1/4
f 86/1/4 87/1/4 92/1/4
f 92/1/4 88/1/4 93/1/4
f 88/2/4 89/2/4 94/2/4
f 93/1/4 88/1/4 94/1/4
f 89/1/4 90/1/4 95/1/4
f 94/2/4 89/2/4 95/2/4
f 90/2/4 91/2/4 96/2/4
f 95/1/4 90/1/4 96/1/4
f 91/2/4 85/2/4 97/2/4
f 96/2/4 91/2/4 97/2/4
f 92/2/4 93/2/4 98/2/4
f 79/1/4 92/1/4 98/1/4
f 93/1/4 94/1/4 99/1/4
f 98/2/4 93/2/4 99/2/4
f 94/1/4 95/1/4 99/1/4
f 99/1/4 95/1/4 100/1/4
f 95/2/4 96/2/4 101/2/4
f 100/1/4 95/1/4 101/1/4
f 96/1/4 97/1/4 102/1/4
f 101/2/4 96/2/4 102/2/4
f 97/2/4 85/2/4 103/2/4
f 102/1/4 97/1/4 103/1/4
f 79/1/4 98/1/4 104/1/4
f 99/1/4 100/1/4 104/1/4
f 98/1/4 99/1/4 104/1/4
f 104/1/4 100/1/4 105/1/4
f 100/2/4 101/2/4 106/2/4
f 105/1/4 100/1/4 106/1/4
f 101/1/4 102/1/4 107/1/4
f 106/2/4 101/2/4 107/2/4
f 102/2/4 103/2/4 108/2/4
f 107/1/4 102/1/4 108/1/4
f 103/2/4 85/2/4 109/2/4
f 108/2/4 103/2/4 109/2/4
f 104/2/4 105/2/4 110/2/4
f 79/1/4 104/1/4 110/1/4
f 105/1/4 106/1/4 111/1/4
f 110/2/4 105/2/4 111/2/4
f 106/1/4 107/1/4 111/1/4
f 111/1/4 107/1/4 112/1/4
f 107/2/4 108/2/4 113/2/4
f 112/1/4 107/1/4 113/1/4
f 108/1/4 109/1/4 114/1/4
f 113/2/4 108/2/4 114/2/4
f 109/2/4 85/2/4 115/2/4
f 114/1/4 109/1/4 115/1/4
f 111/1/4 112/1/4 116/1/4
f 79/1/4 110/1/4 116/1/4
f 110/1/4 111/1/4 116/1/4
f 116/1/4 112/1/4 117/1/4
f 112/2/4 113/2/4 118/2/4
f 117/1/4 112/1/4 118/1/4
f 113/1/4 114/1/4 119/1/4
f 118/2/4 113/2/4 119/2/4
f 114/2/4 115/2/4 120/2/4
f 119/1/4 114/1/4 120/1/4
f 115/2/4 85/2/4 121/2/4
f 120/2/4 115/2/4 121/2/4
f 116/2/4 117/2/4 122/2/4
f 79/1/4 116/1/4 122/1/4
f 118/1/4 119/1/4 123/1/4
f 122/2/4 117/2/4 123/2/4
f 117/1/4 118/1/4 123/1/4
f 123/1/4 119/1/4 124/1/4
f 119/2/4 120/2/4 125/2/4
f 124/1/4 119/1/4 125/1/4
f 120/1/4 121/1/4 126/1/4
f 125/2/4 120/2/4 126/2/4
f 121/2/4 85/2/4 127/2/4
f 126/1/4 121/1/4 127/1/4
f 123/1/4 124/1/4 128/1/4
f 79/1/4 122/1/4 128/1/4
f 122/1/4 123/1/4 128/1/4
f 124/2/4 125/2/4 129/2/4
f 128/1/4 124/1/4 129/1/4
f 125/1/4 126/1/4 130/1/4
f 129/2/4 125/2/4 130/2/4
f 126/2/4 127/2/4 131/2/4
f 130/1/4 126/1/4 131/1/4
f 127/2/4 85/2/4 132/2/4
f 131/2/4 127/2/4 132/2/4
f 135/1/5 134/1/5 133/1/5
f 136/1/5 134/1/5 135/1/5
f 137/2/6 138/2/6 139/2/6
f 139/2/6 138/2/6 140/2/6
