# MagicaVoxel @ Ephtracy

# group
g tileB

# material
mtllib tileB.mtl
usemtl palette

# normals
vn -1 0 0
vn 1 0 0
vn 0 0 1
vn 0 0 -1
vn 0 -1 0
vn 0 1 0

# texcoords
vt 0.978516 0.5
vt 0.982422 0.5

# verts
v -16 0 16
v -16 0 14
v -16 0 -16
v -16 1 16
v -16 1 14
v -16 1 -16
v 16 0 16
v 16 0 14
v 16 0 -16
v 16 1 16
v 16 1 14
v 16 1 -16
v -16 0 16
v -16 1 16
v 16 0 16
v 16 1 16
v -16 0 -16
v -16 1 -16
v 16 0 -16
v 16 1 -16
v -16 0 16
v 16 0 16
v -16 0 14
v 16 0 14
v 4 0 12
v 8 0 12
v 4 0 8
v 8 0 8
v 12 0 8
v 4 0 4
v 8 0 4
v 12 0 4
v 4 0 -0
v 8 0 -0
v -12 0 -8
v -8 0 -8
v -12 0 -12
v -8 0 -12
v -16 0 -16
v 16 0 -16
v -16 1 16
v 16 1 16
v -16 1 14
v 16 1 14
v 4 1 12
v 8 1 12
v 4 1 8
v 8 1 8
v 12 1 8
v 4 1 4
v 8 1 4
v 12 1 4
v 4 1 -0
v 8 1 -0
v -12 1 -8
v -8 1 -8
v -12 1 -12
v -8 1 -12
v -16 1 -16
v 16 1 -16

# faces
f 4/2/1 2/2/1 1/2/1
f 5/1/1 3/1/1 2/1/1
f 5/2/1 2/2/1 4/2/1
f 6/1/1 3/1/1 5/1/1
f 7/2/2 8/2/2 10/2/2
f 8/1/2 9/1/2 11/1/2
f 10/2/2 8/2/2 11/2/2
f 11/1/2 9/1/2 12/1/2
f 15/2/3 14/2/3 13/2/3
f 16/2/3 14/2/3 15/2/3
f 17/1/4 18/1/4 19/1/4
f 19/1/4 18/1/4 20/1/4
f 23/2/5 22/2/5 21/2/5
f 24/2/5 22/2/5 23/2/5
f 25/1/5 24/1/5 23/1/5
f 26/1/5 24/1/5 25/1/5
f 27/1/5 25/1/5 23/1/5
f 27/2/5 26/2/5 25/2/5
f 28/1/5 24/1/5 26/1/5
f 28/2/5 26/2/5 27/2/5
f 29/1/5 24/1/5 28/1/5
f 30/1/5 27/1/5 23/1/5
f 30/1/5 28/1/5 27/1/5
f 31/2/5 29/2/5 28/2/5
f 31/1/5 28/1/5 30/1/5
f 32/1/5 24/1/5 29/1/5
f 32/2/5 29/2/5 31/2/5
f 33/2/5 31/2/5 30/2/5
f 33/1/5 30/1/5 23/1/5
f 34/1/5 32/1/5 31/1/5
f 34/2/5 31/2/5 33/2/5
f 35/1/5 33/1/5 23/1/5
f 35/1/5 34/1/5 33/1/5
f 36/1/5 34/1/5 35/1/5
f 37/1/5 35/1/5 23/1/5
f 37/2/5 36/2/5 35/2/5
f 38/1/5 34/1/5 36/1/5
f 38/2/5 36/2/5 37/2/5
f 39/1/5 37/1/5 23/1/5
f 39/1/5 38/1/5 37/1/5
f 40/1/5 24/1/5 32/1/5
f 40/1/5 38/1/5 39/1/5
f 40/1/5 32/1/5 34/1/5
f 40/1/5 34/1/5 38/1/5
f 41/2/6 42/2/6 43/2/6
f 43/2/6 42/2/6 44/2/6
f 43/1/6 44/1/6 45/1/6
f 45/1/6 44/1/6 46/1/6
f 43/1/6 45/1/6 47/1/6
f 45/2/6 46/2/6 47/2/6
f 46/1/6 44/1/6 48/1/6
f 47/2/6 46/2/6 48/2/6
f 48/1/6 44/1/6 49/1/6
f 43/1/6 47/1/6 50/1/6
f 47/1/6 48/1/6 50/1/6
f 48/2/6 49/2/6 51/2/6
f 50/1/6 48/1/6 51/1/6
f 49/1/6 44/1/6 52/1/6
f 51/2/6 49/2/6 52/2/6
f 50/2/6 51/2/6 53/2/6
f 43/1/6 50/1/6 53/1/6
f 51/1/6 52/1/6 54/1/6
f 53/2/6 51/2/6 54/2/6
f 43/1/6 53/1/6 55/1/6
f 53/1/6 54/1/6 55/1/6
f 55/1/6 54/1/6 56/1/6
f 43/1/6 55/1/6 57/1/6
f 55/2/6 56/2/6 57/2/6
f 56/1/6 54/1/6 58/1/6
f 57/2/6 56/2/6 58/2/6
f 43/1/6 57/1/6 59/1/6
f 57/1/6 58/1/6 59/1/6
f 52/1/6 44/1/6 60/1/6
f 59/1/6 58/1/6 60/1/6
f 54/1/6 52/1/6 60/1/6
f 58/1/6 54/1/6 60/1/6
