# MagicaVoxel @ Ephtracy

# group
g tileA

# material
mtllib tileA.mtl
usemtl palette

# normals
vn -1 0 0
vn 1 0 0
vn 0 0 1
vn 0 0 -1
vn 0 -1 0
vn 0 1 0

# texcoords
vt 0.970703 0.5
vt 0.982422 0.5

# verts
v -52 3 -16
v -52 3 -20
v -52 35 -16
v -52 35 -20
v -20 3 -16
v -20 3 -20
v -20 35 -16
v -20 35 -20
v -52 3 -16
v -52 35 -16
v -44 23 -16
v -44 27 -16
v -40 23 -16
v -40 27 -16
v -32 11 -16
v -32 15 -16
v -28 11 -16
v -28 15 -16
v -28 19 -16
v -24 15 -16
v -24 19 -16
v -20 3 -16
v -20 35 -16
v -52 3 -20
v -52 35 -20
v -44 23 -20
v -44 27 -20
v -40 23 -20
v -40 27 -20
v -32 11 -20
v -32 15 -20
v -28 11 -20
v -28 15 -20
v -28 19 -20
v -24 15 -20
v -24 19 -20
v -20 3 -20
v -20 35 -20
v -52 3 -16
v -20 3 -16
v -52 3 -20
v -20 3 -20
v -52 35 -16
v -20 35 -16
v -52 35 -20
v -20 35 -20

# faces
f 3/2/1 2/2/1 1/2/1
f 4/2/1 2/2/1 3/2/1
f 5/2/2 6/2/2 7/2/2
f 7/2/2 6/2/2 8/2/2
f 11/2/3 10/2/3 9/2/3
f 12/2/3 10/2/3 11/2/3
f 13/2/3 11/2/3 9/2/3
f 13/1/3 12/1/3 11/1/3
f 14/2/3 10/2/3 12/2/3
f 14/1/3 12/1/3 13/1/3
f 15/2/3 13/2/3 9/2/3
f 15/2/3 14/2/3 13/2/3
f 16/2/3 14/2/3 15/2/3
f 17/2/3 15/2/3 9/2/3
f 17/1/3 16/1/3 15/1/3
f 18/2/3 14/2/3 16/2/3
f 18/1/3 16/1/3 17/1/3
f 19/2/3 14/2/3 18/2/3
f 20/2/3 18/2/3 17/2/3
f 20/1/3 19/1/3 18/1/3
f 21/2/3 14/2/3 19/2/3
f 21/1/3 19/1/3 20/1/3
f 22/2/3 17/2/3 9/2/3
f 22/2/3 20/2/3 17/2/3
f 22/2/3 21/2/3 20/2/3
f 23/2/3 10/2/3 14/2/3
f 23/2/3 21/2/3 22/2/3
f 23/2/3 14/2/3 21/2/3
f 24/2/4 25/2/4 26/2/4
f 26/2/4 25/2/4 27/2/4
f 24/2/4 26/2/4 28/2/4
f 26/1/4 27/1/4 28/1/4
f 27/2/4 25/2/4 29/2/4
f 28/1/4 27/1/4 29/1/4
f 24/2/4 28/2/4 30/2/4
f 28/2/4 29/2/4 30/2/4
f 30/2/4 29/2/4 31/2/4
f 24/2/4 30/2/4 32/2/4
f 30/1/4 31/1/4 32/1/4
f 31/2/4 29/2/4 33/2/4
f 32/1/4 31/1/4 33/1/4
f 33/2/4 29/2/4 34/2/4
f 32/2/4 33/2/4 35/2/4
f 33/1/4 34/1/4 35/1/4
f 34/2/4 29/2/4 36/2/4
f 35/1/4 34/1/4 36/1/4
f 24/2/4 32/2/4 37/2/4
f 32/2/4 35/2/4 37/2/4
f 35/2/4 36/2/4 37/2/4
f 29/2/4 25/2/4 38/2/4
f 37/2/4 36/2/4 38/2/4
f 36/2/4 29/2/4 38/2/4
f 41/2/5 40/2/5 39/2/5
f 42/2/5 40/2/5 41/2/5
f 43/2/6 44/2/6 45/2/6
f 45/2/6 44/2/6 46/2/6
