# MagicaVoxel @ Ephtracy

# group
g cemetery01

# material
mtllib cemetery01.mtl
usemtl palette

# normals
vn -1 0 0
vn 1 0 0
vn 0 0 1
vn 0 0 -1
vn 0 -1 0
vn 0 1 0

# texcoords
vt 0.982422 0.5
vt 0.986328 0.5

# verts
v -4.5 0 3
v -4.5 0 -3
v -4.5 1 3
v -4.5 1 -3
v -3.5 1 1
v -3.5 1 -1
v -3.5 7 1
v -3.5 7 -0
v -3.5 8 -0
v -3.5 8 -1
v -2.5 1 2
v -2.5 1 1
v -2.5 1 -1
v -2.5 1 -2
v -2.5 7 2
v -2.5 7 1
v -2.5 7 -0
v -2.5 8 -0
v -2.5 8 -1
v -2.5 8 -2
v -2.5 9 1
v -2.5 9 -1
v -1.5 7 2
v -1.5 7 1
v -1.5 8 2
v -1.5 8 1
v 0.5 1 1
v 0.5 1 -0
v 0.5 4 1
v 0.5 4 -0
v 0.5 5 2
v 0.5 5 1
v 0.5 7 2
v 0.5 7 1
v 1.5 1 2
v 1.5 1 1
v 1.5 5 2
v 1.5 5 1
v -1.5 1 2
v -1.5 1 1
v -1.5 5 2
v -1.5 5 1
v -0.5 1 1
v -0.5 1 -0
v -0.5 4 1
v -0.5 4 -0
v -0.5 5 2
v -0.5 5 1
v -0.5 7 2
v -0.5 7 1
v 1.5 7 2
v 1.5 7 1
v 1.5 8 2
v 1.5 8 1
v 2.5 1 2
v 2.5 1 1
v 2.5 1 -1
v 2.5 1 -2
v 2.5 7 2
v 2.5 7 1
v 2.5 7 -0
v 2.5 8 -0
v 2.5 8 -1
v 2.5 8 -2
v 2.5 9 1
v 2.5 9 -1
v 3.5 1 1
v 3.5 1 -1
v 3.5 7 1
v 3.5 7 -0
v 3.5 8 -0
v 3.5 8 -1
v 4.5 0 3
v 4.5 0 -3
v 4.5 1 3
v 4.5 1 -3
v -4.5 0 3
v -4.5 1 3
v 4.5 0 3
v 4.5 1 3
v -2.5 1 2
v -2.5 7 2
v -1.5 1 2
v -1.5 5 2
v -1.5 7 2
v -1.5 8 2
v -0.5 5 2
v -0.5 7 2
v 0.5 5 2
v 0.5 7 2
v 1.5 1 2
v 1.5 5 2
v 1.5 7 2
v 1.5 8 2
v 2.5 1 2
v 2.5 7 2
v -3.5 1 1
v -3.5 7 1
v -2.5 1 1
v -2.5 7 1
v -2.5 9 1
v -1.5 1 1
v -1.5 5 1
v -1.5 7 1
v -1.5 8 1
v -0.5 1 1
v -0.5 4 1
v -0.5 5 1
v -0.5 7 1
v 0.5 1 1
v 0.5 4 1
v 0.5 5 1
v 0.5 7 1
v 1.5 1 1
v 1.5 5 1
v 1.5 7 1
v 1.5 8 1
v 2.5 1 1
v 2.5 7 1
v 2.5 9 1
v 3.5 1 1
v 3.5 7 1
v -3.5 7 -0
v -3.5 8 -0
v -2.5 7 -0
v -2.5 8 -0
v -0.5 1 -0
v -0.5 4 -0
v 0.5 1 -0
v 0.5 4 -0
v 2.5 7 -0
v 2.5 8 -0
v 3.5 7 -0
v 3.5 8 -0
v -3.5 1 -1
v -3.5 8 -1
v -2.5 1 -1
v -2.5 8 -1
v -2.5 9 -1
v 2.5 1 -1
v 2.5 8 -1
v 2.5 9 -1
v 3.5 1 -1
v 3.5 8 -1
v -2.5 1 -2
v -2.5 8 -2
v 2.5 1 -2
v 2.5 8 -2
v -4.5 0 -3
v -4.5 1 -3
v 4.5 0 -3
v 4.5 1 -3
v -4.5 0 3
v 4.5 0 3
v -2.5 0 2
v -1.5 0 2
v 1.5 0 2
v 2.5 0 2
v -3.5 0 1
v -2.5 0 1
v -1.5 0 1
v -0.5 0 1
v 0.5 0 1
v 1.5 0 1
v 2.5 0 1
v 3.5 0 1
v -0.5 0 -0
v 0.5 0 -0
v -3.5 0 -1
v -2.5 0 -1
v 2.5 0 -1
v 3.5 0 -1
v -2.5 0 -2
v 2.5 0 -2
v -4.5 0 -3
v 4.5 0 -3
v -0.5 4 1
v 0.5 4 1
v -0.5 4 -0
v 0.5 4 -0
v -1.5 5 2
v -0.5 5 2
v 0.5 5 2
v 1.5 5 2
v -1.5 5 1
v -0.5 5 1
v 0.5 5 1
v 1.5 5 1
v -0.5 7 2
v 0.5 7 2
v -0.5 7 1
v 0.5 7 1
v -4.5 1 3
v 4.5 1 3
v -2.5 1 2
v -1.5 1 2
v 1.5 1 2
v 2.5 1 2
v -3.5 1 1
v -2.5 1 1
v -1.5 1 1
v -0.5 1 1
v 0.5 1 1
v 1.5 1 1
v 2.5 1 1
v 3.5 1 1
v -0.5 1 -0
v 0.5 1 -0
v -3.5 1 -1
v -2.5 1 -1
v 2.5 1 -1
v 3.5 1 -1
v -2.5 1 -2
v 2.5 1 -2
v -4.5 1 -3
v 4.5 1 -3
v -2.5 7 2
v -1.5 7 2
v 1.5 7 2
v 2.5 7 2
v -3.5 7 1
v -2.5 7 1
v -1.5 7 1
v 1.5 7 1
v 2.5 7 1
v 3.5 7 1
v -3.5 7 -0
v -2.5 7 -0
v 2.5 7 -0
v 3.5 7 -0
v -1.5 8 2
v 1.5 8 2
v -1.5 8 1
v 1.5 8 1
v -3.5 8 -0
v -2.5 8 -0
v 2.5 8 -0
v 3.5 8 -0
v -3.5 8 -1
v -2.5 8 -1
v 2.5 8 -1
v 3.5 8 -1
v -2.5 8 -2
v 2.5 8 -2
v -2.5 9 1
v 2.5 9 1
v -2.5 9 -1
v 2.5 9 -1

# faces
f 3/2/1 2/2/1 1/2/1
f 4/2/1 2/2/1 3/2/1
f 7/1/1 6/1/1 5/1/1
f 8/1/1 6/1/1 7/1/1
f 9/1/1 6/1/1 8/1/1
f 10/1/1 6/1/1 9/1/1
f 15/2/1 12/2/1 11/2/1
f 16/2/1 12/2/1 15/2/1
f 18/1/1 17/1/1 16/1/1
f 19/1/1 14/1/1 13/1/1
f 20/1/1 14/1/1 19/1/1
f 21/1/1 18/1/1 16/1/1
f 21/1/1 19/1/1 18/1/1
f 22/1/1 19/1/1 21/1/1
f 25/2/1 24/2/1 23/2/1
f 26/2/1 24/2/1 25/2/1
f 29/1/1 28/1/1 27/1/1
f 30/1/1 28/1/1 29/1/1
f 33/2/1 32/2/1 31/2/1
f 34/2/1 32/2/1 33/2/1
f 37/2/1 36/2/1 35/2/1
f 38/2/1 36/2/1 37/2/1
f 39/2/2 40/2/2 41/2/2
f 41/2/2 40/2/2 42/2/2
f 43/1/2 44/1/2 45/1/2
f 45/1/2 44/1/2 46/1/2
f 47/2/2 48/2/2 49/2/2
f 49/2/2 48/2/2 50/2/2
f 51/2/2 52/2/2 53/2/2
f 53/2/2 52/2/2 54/2/2
f 55/2/2 56/2/2 59/2/2
f 59/2/2 56/2/2 60/2/2
f 60/1/2 61/1/2 62/1/2
f 57/1/2 58/1/2 63/1/2
f 63/1/2 58/1/2 64/1/2
f 60/1/2 62/1/2 65/1/2
f 62/1/2 63/1/2 65/1/2
f 65/1/2 63/1/2 66/1/2
f 67/1/2 68/1/2 69/1/2
f 69/1/2 68/1/2 70/1/2
f 70/1/2 68/1/2 71/1/2
f 71/1/2 68/1/2 72/1/2
f 73/2/2 74/2/2 75/2/2
f 75/2/2 74/2/2 76/2/2
f 79/2/3 78/2/3 77/2/3
f 80/2/3 78/2/3 79/2/3
f 83/2/3 82/2/3 81/2/3
f 84/2/3 82/2/3 83/2/3
f 85/2/3 82/2/3 84/2/3
f 87/2/3 86/2/3 85/2/3
f 87/2/3 85/2/3 84/2/3
f 88/2/3 86/2/3 87/2/3
f 90/2/3 86/2/3 88/2/3
f 92/2/3 90/2/3 89/2/3
f 93/2/3 86/2/3 90/2/3
f 93/2/3 90/2/3 92/2/3
f 94/2/3 86/2/3 93/2/3
f 95/2/3 92/2/3 91/2/3
f 95/2/3 93/2/3 92/2/3
f 96/2/3 93/2/3 95/2/3
f 99/1/3 98/1/3 97/1/3
f 100/1/3 98/1/3 99/1/3
f 104/1/3 101/1/3 100/1/3
f 105/1/3 101/1/3 104/1/3
f 106/1/3 103/1/3 102/1/3
f 107/1/3 103/1/3 106/1/3
f 108/1/3 103/1/3 107/1/3
f 111/1/3 109/1/3 108/1/3
f 111/1/3 108/1/3 107/1/3
f 112/1/3 109/1/3 111/1/3
f 113/1/3 109/1/3 112/1/3
f 114/1/3 111/1/3 110/1/3
f 114/1/3 112/1/3 111/1/3
f 115/1/3 112/1/3 114/1/3
f 117/1/3 101/1/3 105/1/3
f 119/1/3 117/1/3 116/1/3
f 120/1/3 101/1/3 117/1/3
f 120/1/3 117/1/3 119/1/3
f 121/1/3 119/1/3 118/1/3
f 122/1/3 119/1/3 121/1/3
f 125/1/3 124/1/3 123/1/3
f 126/1/3 124/1/3 125/1/3
f 129/1/3 128/1/3 127/1/3
f 130/1/3 128/1/3 129/1/3
f 133/1/3 132/1/3 131/1/3
f 134/1/3 132/1/3 133/1/3
f 135/1/4 136/1/4 137/1/4
f 137/1/4 136/1/4 138/1/4
f 138/1/4 139/1/4 141/1/4
f 141/1/4 139/1/4 142/1/4
f 140/1/4 141/1/4 143/1/4
f 143/1/4 141/1/4 144/1/4
f 145/1/4 146/1/4 147/1/4
f 147/1/4 146/1/4 148/1/4
f 149/2/4 150/2/4 151/2/4
f 151/2/4 150/2/4 152/2/4
f 155/2/5 154/2/5 153/2/5
f 156/2/5 154/2/5 155/2/5
f 157/2/5 154/2/5 156/2/5
f 158/2/5 154/2/5 157/2/5
f 159/2/5 155/2/5 153/2/5
f 160/1/5 156/1/5 155/1/5
f 160/2/5 155/2/5 159/2/5
f 161/2/5 157/2/5 156/2/5
f 161/1/5 156/1/5 160/1/5
f 162/2/5 157/2/5 161/2/5
f 163/2/5 157/2/5 162/2/5
f 164/1/5 158/1/5 157/1/5
f 164/2/5 157/2/5 163/2/5
f 165/2/5 154/2/5 158/2/5
f 165/1/5 158/1/5 164/1/5
f 166/2/5 154/2/5 165/2/5
f 167/1/5 160/1/5 159/1/5
f 167/2/5 163/2/5 162/2/5
f 167/1/5 161/1/5 160/1/5
f 167/1/5 162/1/5 161/1/5
f 168/1/5 164/1/5 163/1/5
f 168/2/5 163/2/5 167/2/5
f 168/1/5 166/1/5 165/1/5
f 168/1/5 165/1/5 164/1/5
f 169/1/5 167/1/5 159/1/5
f 169/2/5 159/2/5 153/2/5
f 169/1/5 168/1/5 167/1/5
f 170/1/5 168/1/5 169/1/5
f 171/1/5 166/1/5 168/1/5
f 171/1/5 168/1/5 170/1/5
f 172/2/5 154/2/5 166/2/5
f 172/1/5 166/1/5 171/1/5
f 173/2/5 170/2/5 169/2/5
f 173/1/5 171/1/5 170/1/5
f 174/2/5 172/2/5 171/2/5
f 174/1/5 171/1/5 173/1/5
f 175/2/5 173/2/5 169/2/5
f 175/2/5 169/2/5 153/2/5
f 175/2/5 174/2/5 173/2/5
f 176/2/5 154/2/5 172/2/5
f 176/2/5 174/2/5 175/2/5
f 176/2/5 172/2/5 174/2/5
f 179/1/5 178/1/5 177/1/5
f 180/1/5 178/1/5 179/1/5
f 185/2/5 182/2/5 181/2/5
f 186/2/5 182/2/5 185/2/5
f 187/2/5 184/2/5 183/2/5
f 188/2/5 184/2/5 187/2/5
f 191/2/5 190/2/5 189/2/5
f 192/2/5 190/2/5 191/2/5
f 193/2/6 194/2/6 195/2/6
f 195/2/6 194/2/6 196/2/6
f 196/2/6 194/2/6 197/2/6
f 197/2/6 194/2/6 198/2/6
f 193/2/6 195/2/6 199/2/6
f 199/2/6 195/2/6 200/2/6
f 196/2/6 197/2/6 201/2/6
f 201/2/6 197/2/6 202/2/6
f 202/2/6 197/2/6 203/2/6
f 203/2/6 197/2/6 204/2/6
f 198/2/6 194/2/6 205/2/6
f 205/2/6 194/2/6 206/2/6
f 202/2/6 203/2/6 207/2/6
f 207/2/6 203/2/6 208/2/6
f 193/2/6 199/2/6 209/2/6
f 206/2/6 194/2/6 212/2/6
f 209/2/6 210/2/6 213/2/6
f 211/2/6 212/2/6 214/2/6
f 193/2/6 209/2/6 215/2/6
f 213/2/6 214/2/6 215/2/6
f 209/2/6 213/2/6 215/2/6
f 214/2/6 212/2/6 216/2/6
f 215/2/6 214/2/6 216/2/6
f 212/2/6 194/2/6 216/2/6
f 217/2/6 218/2/6 222/2/6
f 222/2/6 218/2/6 223/2/6
f 219/2/6 220/2/6 224/2/6
f 224/2/6 220/2/6 225/2/6
f 221/1/6 222/1/6 227/1/6
f 227/1/6 222/1/6 228/1/6
f 225/1/6 226/1/6 229/1/6
f 229/1/6 226/1/6 230/1/6
f 231/2/6 232/2/6 233/2/6
f 233/2/6 232/2/6 234/2/6
f 235/1/6 236/1/6 239/1/6
f 239/1/6 236/1/6 240/1/6
f 237/1/6 238/1/6 241/1/6
f 241/1/6 238/1/6 242/1/6
f 240/1/6 241/1/6 243/1/6
f 243/1/6 241/1/6 244/1/6
f 245/1/6 246/1/6 247/1/6
f 247/1/6 246/1/6 248/1/6
