# MagicaVoxel @ Ephtracy

# group
g cemetery02

# material
mtllib cemetery02.mtl
usemtl palette

# normals
vn -1 0 0
vn 1 0 0
vn 0 0 1
vn 0 0 -1
vn 0 -1 0
vn 0 1 0

# texcoords
vt 0.982422 0.5
vt 0.986328 0.5

# verts
v -4 0 3
v -4 0 -3
v -4 1 3
v -4 1 -3
v -3 1 1
v -3 1 -1
v -3 7 1
v -3 7 -1
v -2 1 2
v -2 1 1
v -2 1 -1
v -2 1 -2
v -2 7 2
v -2 7 1
v -2 7 -1
v -2 7 -2
v -2 8 1
v -2 8 -1
v 1 3 2
v 1 3 1
v 1 4 2
v 1 4 1
v 1 5 2
v 1 5 1
v 1 6 2
v 1 6 1
v -1 3 2
v -1 3 1
v -1 4 2
v -1 4 1
v -1 5 2
v -1 5 1
v -1 6 2
v -1 6 1
v 2 1 2
v 2 1 1
v 2 1 -1
v 2 1 -2
v 2 7 2
v 2 7 1
v 2 7 -1
v 2 7 -2
v 2 8 1
v 2 8 -1
v 3 1 1
v 3 1 -1
v 3 7 1
v 3 7 -1
v 4 0 3
v 4 0 -3
v 4 1 3
v 4 1 -3
v -4 0 3
v -4 1 3
v 4 0 3
v 4 1 3
v -2 1 2
v -2 7 2
v -1 3 2
v -1 4 2
v -1 5 2
v -1 6 2
v 1 3 2
v 1 4 2
v 1 5 2
v 1 6 2
v 2 1 2
v 2 7 2
v -3 1 1
v -3 7 1
v -2 1 1
v -2 7 1
v -2 8 1
v -1 3 1
v -1 4 1
v -1 5 1
v -1 6 1
v 1 3 1
v 1 4 1
v 1 5 1
v 1 6 1
v 2 1 1
v 2 7 1
v 2 8 1
v 3 1 1
v 3 7 1
v -3 1 -1
v -3 7 -1
v -2 1 -1
v -2 7 -1
v -2 8 -1
v 2 1 -1
v 2 7 -1
v 2 8 -1
v 3 1 -1
v 3 7 -1
v -2 1 -2
v -2 7 -2
v 2 1 -2
v 2 7 -2
v -4 0 -3
v -4 1 -3
v 4 0 -3
v 4 1 -3
v -4 0 3
v 4 0 3
v -2 0 2
v 2 0 2
v -3 0 1
v -2 0 1
v 2 0 1
v 3 0 1
v -3 0 -1
v -2 0 -1
v 2 0 -1
v 3 0 -1
v -2 0 -2
v 2 0 -2
v -4 0 -3
v 4 0 -3
v -1 4 2
v 1 4 2
v -1 4 1
v 1 4 1
v -1 6 2
v 1 6 2
v -1 6 1
v 1 6 1
v -4 1 3
v 4 1 3
v -2 1 2
v 2 1 2
v -3 1 1
v -2 1 1
v 2 1 1
v 3 1 1
v -3 1 -1
v -2 1 -1
v 2 1 -1
v 3 1 -1
v -2 1 -2
v 2 1 -2
v -4 1 -3
v 4 1 -3
v -1 3 2
v 1 3 2
v -1 3 1
v 1 3 1
v -1 5 2
v 1 5 2
v -1 5 1
v 1 5 1
v -2 7 2
v 2 7 2
v -3 7 1
v -2 7 1
v 2 7 1
v 3 7 1
v -3 7 -1
v -2 7 -1
v 2 7 -1
v 3 7 -1
v -2 7 -2
v 2 7 -2
v -2 8 1
v 2 8 1
v -2 8 -1
v 2 8 -1

# faces
f 3/2/1 2/2/1 1/2/1
f 4/2/1 2/2/1 3/2/1
f 7/1/1 6/1/1 5/1/1
f 8/1/1 6/1/1 7/1/1
f 13/1/1 10/1/1 9/1/1
f 14/1/1 10/1/1 13/1/1
f 15/1/1 12/1/1 11/1/1
f 16/1/1 12/1/1 15/1/1
f 17/1/1 15/1/1 14/1/1
f 18/1/1 15/1/1 17/1/1
f 21/1/1 20/1/1 19/1/1
f 22/1/1 20/1/1 21/1/1
f 25/1/1 24/1/1 23/1/1
f 26/1/1 24/1/1 25/1/1
f 27/1/2 28/1/2 29/1/2
f 29/1/2 28/1/2 30/1/2
f 31/1/2 32/1/2 33/1/2
f 33/1/2 32/1/2 34/1/2
f 35/1/2 36/1/2 39/1/2
f 39/1/2 36/1/2 40/1/2
f 37/1/2 38/1/2 41/1/2
f 41/1/2 38/1/2 42/1/2
f 40/1/2 41/1/2 43/1/2
f 43/1/2 41/1/2 44/1/2
f 45/1/2 46/1/2 47/1/2
f 47/1/2 46/1/2 48/1/2
f 49/2/2 50/2/2 51/2/2
f 51/2/2 50/2/2 52/2/2
f 55/2/3 54/2/3 53/2/3
f 56/2/3 54/2/3 55/2/3
f 59/1/3 58/1/3 57/1/3
f 60/1/3 58/1/3 59/1/3
f 61/1/3 58/1/3 60/1/3
f 62/1/3 58/1/3 61/1/3
f 63/1/3 59/1/3 57/1/3
f 64/1/3 61/1/3 60/1/3
f 65/1/3 61/1/3 64/1/3
f 66/1/3 58/1/3 62/1/3
f 67/1/3 65/1/3 64/1/3
f 67/1/3 66/1/3 65/1/3
f 67/1/3 63/1/3 57/1/3
f 67/1/3 64/1/3 63/1/3
f 68/1/3 58/1/3 66/1/3
f 68/1/3 66/1/3 67/1/3
f 71/1/3 70/1/3 69/1/3
f 72/1/3 70/1/3 71/1/3
f 78/2/3 75/2/3 74/2/3
f 79/2/3 75/2/3 78/2/3
f 80/2/3 77/2/3 76/2/3
f 81/2/3 77/2/3 80/2/3
f 83/1/3 73/1/3 72/1/3
f 84/1/3 73/1/3 83/1/3
f 85/1/3 83/1/3 82/1/3
f 86/1/3 83/1/3 85/1/3
f 87/1/4 88/1/4 89/1/4
f 89/1/4 88/1/4 90/1/4
f 90/1/4 91/1/4 93/1/4
f 93/1/4 91/1/4 94/1/4
f 92/1/4 93/1/4 95/1/4
f 95/1/4 93/1/4 96/1/4
f 97/1/4 98/1/4 99/1/4
f 99/1/4 98/1/4 100/1/4
f 101/2/4 102/2/4 103/2/4
f 103/2/4 102/2/4 104/2/4
f 107/2/5 106/2/5 105/2/5
f 108/2/5 106/2/5 107/2/5
f 109/2/5 107/2/5 105/2/5
f 110/1/5 108/1/5 107/1/5
f 110/2/5 107/2/5 109/2/5
f 111/2/5 106/2/5 108/2/5
f 111/1/5 108/1/5 110/1/5
f 112/2/5 106/2/5 111/2/5
f 113/1/5 110/1/5 109/1/5
f 113/2/5 109/2/5 105/2/5
f 113/1/5 112/1/5 111/1/5
f 113/1/5 111/1/5 110/1/5
f 114/1/5 112/1/5 113/1/5
f 115/1/5 112/1/5 114/1/5
f 116/2/5 106/2/5 112/2/5
f 116/1/5 112/1/5 115/1/5
f 117/1/5 115/1/5 114/1/5
f 117/2/5 114/2/5 113/2/5
f 118/2/5 116/2/5 115/2/5
f 118/1/5 115/1/5 117/1/5
f 119/2/5 113/2/5 105/2/5
f 119/2/5 117/2/5 113/2/5
f 119/2/5 118/2/5 117/2/5
f 120/2/5 106/2/5 116/2/5
f 120/2/5 118/2/5 119/2/5
f 120/2/5 116/2/5 118/2/5
f 123/1/5 122/1/5 121/1/5
f 124/1/5 122/1/5 123/1/5
f 127/1/5 126/1/5 125/1/5
f 128/1/5 126/1/5 127/1/5
f 129/2/6 130/2/6 131/2/6
f 131/2/6 130/2/6 132/2/6
f 129/2/6 131/2/6 133/2/6
f 133/2/6 131/2/6 134/2/6
f 132/2/6 130/2/6 135/2/6
f 135/2/6 130/2/6 136/2/6
f 129/2/6 133/2/6 137/2/6
f 136/2/6 130/2/6 140/2/6
f 137/2/6 138/2/6 141/2/6
f 139/2/6 140/2/6 142/2/6
f 137/2/6 141/2/6 143/2/6
f 141/2/6 142/2/6 143/2/6
f 129/2/6 137/2/6 143/2/6
f 142/2/6 140/2/6 144/2/6
f 143/2/6 142/2/6 144/2/6
f 140/2/6 130/2/6 144/2/6
f 145/1/6 146/1/6 147/1/6
f 147/1/6 146/1/6 148/1/6
f 149/1/6 150/1/6 151/1/6
f 151/1/6 150/1/6 152/1/6
f 153/1/6 154/1/6 156/1/6
f 156/1/6 154/1/6 157/1/6
f 155/1/6 156/1/6 159/1/6
f 159/1/6 156/1/6 160/1/6
f 157/1/6 158/1/6 161/1/6
f 161/1/6 158/1/6 162/1/6
f 160/1/6 161/1/6 163/1/6
f 163/1/6 161/1/6 164/1/6
f 165/1/6 166/1/6 167/1/6
f 167/1/6 166/1/6 168/1/6
